{"title":"Paloma Faith - Only Love Can Hurt Like This [Music Video] 720p [","uid":10249915,"size":39044325,"categoryP":"video","categoryS":"music_videos","magnet":"?xt=urn:btih:2b81581252a5c90f733aee9473c1491087067ca6&amp;dn=Paloma+Faith+-+Only+Love+Can+Hurt+Like+This+%5BMusic+Video%5D+720p+%5B&amp;tr=udp%3A%2F%2Ftracker.openbittorrent.com%3A80&amp;tr=udp%3A%2F%2Fopen.demonii.com%3A1337&amp;tr=udp%3A%2F%2Ftracker.coppersurfer.tk%3A6969&amp;tr=udp%3A%2F%2Fexodus.desync.com%3A6969","seeders":4,"leechers":0,"uploader":"Sbyky","files":1,"time":1401336449,"description":"\n\nGeneral\nComplete name                            : Paloma Faith - Only Love Can Hurt Like This [Music Video] 720p [Sbyky].MP4\nFormat                                   : MPEG-4\nFormat profile                           : Base Media\nCodec ID                                 : isom\nFile size                                : 37.2 MiB\nDuration                                 : 3mn 41s\nOverall bit rate mode                    : Variable\nOverall bit rate                         : 1 410 Kbps\nEncoded date                             : UTC 2014-03-22 00:42:04\nTagged date                              : UTC 2014-03-22 00:42:04\n\nVideo\nID                                       : 1\nFormat                                   : AVC\nFormat/Info                              : Advanced Video Codec\nFormat profile                           : &lt;a class=&quot;__cf_email__&quot; href=&quot;/cdn-cgi/l/email-protection&quot; data-cfemail=&quot;5b163a32351b1768756a&quot;&gt;[email&amp;#160;protected]&lt;/a&gt;&lt;script data-cfhash='f9e31' type=&quot;text/javascript&quot;&gt;\n/* &lt;![CDATA[ */!function(){try{var t=&quot;currentScript&quot;in document?document.currentScript:function(){for(var t=document.getElementsByTagName(&quot;script&quot;),e=t.length;e--;)if(t[e].getAttribute(&quot;data-cfhash&quot;))return t[e]}();if(t&amp;&amp;t.previousSibling){var e,r,n,i,c=t.previousSibling,a=c.getAttribute(&quot;data-cfemail&quot;);if(a){for(e=&quot;&quot;,r=parseInt(a.substr(0,2),16),n=2;a.length-n;n+=2)i=parseInt(a.substr(n,2),16)^r,e+=String.fromCharCode(i);e=document.createTextNode(e),c.parentNode.replaceChild(e,c)}t.parentNode.removeChild(t);}}catch(u){}}()/* ]]&gt; */&lt;/script&gt;\nFormat settings, CABAC                   : Yes\nFormat settings, ReFrames                : 3 frames\nCodec ID                                 : avc1\nCodec ID/Info                            : Advanced Video Coding\nDuration                                 : 3mn 41s\nBit rate                                 : 1 281 Kbps\nWidth                                    : 1 280 pixels\nHeight                                   : 720 pixels\nDisplay aspect ratio                     : 16:9\nFrame rate mode                          : Constant\nFrame rate                               : 25.000 fps\nColor space                              : YUV\nChroma subsampling                       : 4:2:0\nBit depth                                : 8 bits\nScan type                                : Progressive\nBits/(Pixel*Frame)                       : 0.056\nStream size                              : 33.8 MiB (91%)\nEncoded date                             : UTC 2014-03-22 00:42:04\nTagged date                              : UTC 2014-03-22 00:42:04\n\nAudio\nID                                       : 2\nFormat                                   : AAC\nFormat/Info                              : Advanced Audio Codec\nFormat profile                           : LC\nCodec ID                                 : 40\nDuration                                 : 3mn 41s\nBit rate mode                            : Variable\nBit rate                                 : 126 Kbps\nChannel(s)                               : 2 channels\nChannel positions                        : Front: L R\nSampling rate                            : 44.1 KHz\nCompression mode                         : Lossy\nStream size                              : 3.32 MiB (9%)\nEncoded date                             : UTC 2014-03-22 00:41:53\nTagged date                              : UTC 2014-03-22 00:41:53\n\nShared By Sbyky\n","torrent":{"xt":"urn:btih:2b81581252a5c90f733aee9473c1491087067ca6","amp;dn":"Paloma+Faith+-+Only+Love+Can+Hurt+Like+This+%5BMusic+Video%5D+720p+%5B","amp;tr":["udp%3A%2F%2Ftracker.openbittorrent.com%3A80","udp%3A%2F%2Fopen.demonii.com%3A1337","udp%3A%2F%2Ftracker.coppersurfer.tk%3A6969","udp%3A%2F%2Fexodus.desync.com%3A6969"],"infoHash":"2b81581252a5c90f733aee9473c1491087067ca6","infoHashBuffer":{"type":"Buffer","data":[43,129,88,18,82,165,201,15,115,58,238,148,115,193,73,16,135,6,124,166]},"announce":[],"urlList":[]}}